<svg width="138" height="141" viewBox="0 0 138 141" fill="none" xmlns="http://www.w3.org/2000/svg">
<path fill-rule="evenodd" clip-rule="evenodd" d="M69 140.854C107.108 140.854 138 109.323 138 70.4272C138 31.5313 107.108 0 69 0C30.8924 0 0 31.5313 0 70.4272C0 109.323 30.8924 140.854 69 140.854ZM59.0608 87.2972L67.5469 78.355L59.0608 69.4128L50.574 78.355L59.0608 87.2972ZM76.8822 88.191L68.396 79.2488L59.9092 88.191L68.396 97.134L76.8822 88.191ZM86.2174 98.0278L77.7313 89.0856L69.2452 98.0278L77.7313 106.969L86.2174 98.0278ZM58.2123 88.191L49.7255 79.2488L41.2387 88.191L49.7255 97.134L58.2123 88.191ZM59.0608 106.969L67.5469 98.0278L59.0608 89.0856L50.574 98.0278L59.0608 106.969ZM68.396 98.9217L59.9092 107.865L68.396 116.806L76.8822 107.865L68.396 98.9217ZM59.9092 68.5174L68.396 77.4596L76.8822 68.5174L68.396 59.5752L59.9092 68.5174ZM77.7313 69.412L69.2452 78.3542L77.7313 87.2964L86.2174 78.3542L77.7313 69.412ZM50.574 58.6814L59.0608 67.6236L67.5469 58.6814L59.0608 49.7391L50.574 58.6814ZM59.9092 48.8446L68.396 57.7868L76.8822 48.8446L68.396 39.9016L59.9092 48.8446ZM73.0759 33.2062L68.5161 22.3306L63.7155 33.2062L68.396 38.058L73.0759 33.2062ZM58.2123 48.8446L50.5133 40.7947L46.9129 54.9588L49.7255 57.7875L58.2123 48.8446ZM67.5734 38.9805L59.8751 30.93L54.3544 42.8179L59.0873 47.9228L67.5734 38.9805ZM58.2123 68.5174L43.0724 52.4288V70.6391L49.7255 77.4596L58.2123 68.5174ZM48.877 78.355L40.3902 69.4128L43.0724 84.5516L48.877 78.355ZM58.2123 107.865L49.7255 98.9217L44.9926 104.027L56.2746 110.097L58.2123 107.865ZM48.8505 98.0006L43.0724 91.8864L44.9926 102.003L48.8505 98.0006ZM56.2746 111.615L65.3957 115.408L59.0608 108.758L56.2746 111.615ZM87.0422 57.7875L89.8478 54.9588L86.2558 40.7947L78.5735 48.8446L87.0422 57.7875ZM77.7013 47.9228L82.4237 42.8179L76.9149 30.93L69.2334 38.9805L77.7013 47.9228ZM87.0422 77.4604L93.6806 70.6399V52.4295L78.5742 68.5182L87.0422 77.4604ZM93.6799 84.5509L96.3565 69.412L87.8878 78.3542L93.6799 84.5509ZM78.5735 107.865L80.507 110.097L91.7639 104.027L87.0415 98.9224L78.5735 107.865ZM91.7639 102.004L93.6799 91.8871L87.9137 98.0014L91.7639 102.004ZM71.4062 115.408L80.507 111.615L77.7271 108.758L71.4062 115.408ZM86.2174 58.6814L77.7313 49.7391L69.2452 58.6814L77.7313 67.6236L86.2174 58.6814ZM78.5791 88.191L87.0666 97.134L95.5527 88.191L87.0666 79.2488L78.5791 88.191Z" fill="#ECF4DB"/>
</svg>
